<mxfile host="Electron" agent="Mozilla/5.0 (Windows NT 10.0; Win64; x64) AppleWebKit/537.36 (KHTML, like Gecko) draw.io/24.7.17 Chrome/128.0.6613.36 Electron/32.0.1 Safari/537.36" version="24.7.17">
  <diagram name="Pagina-1" id="KQLSlr59xOzLlggf0zGA">
    <mxGraphModel dx="676" dy="391" grid="1" gridSize="10" guides="1" tooltips="1" connect="1" arrows="1" fold="1" page="1" pageScale="1" pageWidth="827" pageHeight="1169" math="1" shadow="0">
      <root>
        <mxCell id="0" />
        <mxCell id="1" parent="0" />
        <mxCell id="4g0ZVDvBsmE5eNXcazLT-1" value="" style="ellipse;whiteSpace=wrap;html=1;aspect=fixed;fillColor=none;" vertex="1" parent="1">
          <mxGeometry x="90" y="330" width="40" height="40" as="geometry" />
        </mxCell>
        <mxCell id="4g0ZVDvBsmE5eNXcazLT-2" value="" style="rounded=0;whiteSpace=wrap;html=1;fillColor=#000000;" vertex="1" parent="1">
          <mxGeometry x="170" y="370" width="5" height="30" as="geometry" />
        </mxCell>
        <mxCell id="4g0ZVDvBsmE5eNXcazLT-3" value="" style="rounded=0;whiteSpace=wrap;html=1;fillColor=#000000;" vertex="1" parent="1">
          <mxGeometry x="170" y="300" width="5" height="30" as="geometry" />
        </mxCell>
        <mxCell id="4g0ZVDvBsmE5eNXcazLT-5" value="" style="ellipse;whiteSpace=wrap;html=1;aspect=fixed;fillColor=none;" vertex="1" parent="1">
          <mxGeometry x="90" y="400" width="40" height="40" as="geometry" />
        </mxCell>
        <mxCell id="4g0ZVDvBsmE5eNXcazLT-7" value="" style="endArrow=classic;html=1;rounded=0;exitX=1;exitY=0;exitDx=0;exitDy=0;entryX=0;entryY=0.75;entryDx=0;entryDy=0;fillColor=#f8cecc;strokeColor=#b85450;" edge="1" parent="1" source="4g0ZVDvBsmE5eNXcazLT-5" target="4g0ZVDvBsmE5eNXcazLT-2">
          <mxGeometry width="50" height="50" relative="1" as="geometry">
            <mxPoint x="160" y="410" as="sourcePoint" />
            <mxPoint x="210" y="360" as="targetPoint" />
          </mxGeometry>
        </mxCell>
        <mxCell id="4g0ZVDvBsmE5eNXcazLT-8" value="" style="endArrow=classic;html=1;rounded=0;exitX=1;exitY=1;exitDx=0;exitDy=0;entryX=0;entryY=0.25;entryDx=0;entryDy=0;" edge="1" parent="1" source="4g0ZVDvBsmE5eNXcazLT-1" target="4g0ZVDvBsmE5eNXcazLT-2">
          <mxGeometry width="50" height="50" relative="1" as="geometry">
            <mxPoint x="140" y="430" as="sourcePoint" />
            <mxPoint x="180" y="403" as="targetPoint" />
          </mxGeometry>
        </mxCell>
        <mxCell id="4g0ZVDvBsmE5eNXcazLT-9" value="" style="endArrow=classic;html=1;rounded=0;exitX=1;exitY=0;exitDx=0;exitDy=0;entryX=0;entryY=0.5;entryDx=0;entryDy=0;fillColor=#f8cecc;strokeColor=#b85450;" edge="1" parent="1" source="4g0ZVDvBsmE5eNXcazLT-1" target="4g0ZVDvBsmE5eNXcazLT-3">
          <mxGeometry width="50" height="50" relative="1" as="geometry">
            <mxPoint x="110" y="330" as="sourcePoint" />
            <mxPoint x="156" y="317" as="targetPoint" />
          </mxGeometry>
        </mxCell>
        <mxCell id="4g0ZVDvBsmE5eNXcazLT-10" value="questo collegamento non puÃ² avvenire in una rete a scelta libera. Uno dei due vincoli va rispettato." style="text;html=1;align=center;verticalAlign=middle;whiteSpace=wrap;rounded=0;fontFamily=Times New Roman;fontSize=10;" vertex="1" parent="1">
          <mxGeometry x="90" y="450" width="90" height="90" as="geometry" />
        </mxCell>
        <mxCell id="4g0ZVDvBsmE5eNXcazLT-11" value="" style="ellipse;whiteSpace=wrap;html=1;aspect=fixed;fillColor=none;" vertex="1" parent="1">
          <mxGeometry x="270" y="330" width="40" height="40" as="geometry" />
        </mxCell>
        <mxCell id="4g0ZVDvBsmE5eNXcazLT-12" value="" style="rounded=0;whiteSpace=wrap;html=1;fillColor=#000000;" vertex="1" parent="1">
          <mxGeometry x="350" y="370" width="5" height="30" as="geometry" />
        </mxCell>
        <mxCell id="4g0ZVDvBsmE5eNXcazLT-13" value="" style="rounded=0;whiteSpace=wrap;html=1;fillColor=#000000;" vertex="1" parent="1">
          <mxGeometry x="350" y="300" width="5" height="30" as="geometry" />
        </mxCell>
        <mxCell id="4g0ZVDvBsmE5eNXcazLT-14" value="" style="ellipse;whiteSpace=wrap;html=1;aspect=fixed;fillColor=none;" vertex="1" parent="1">
          <mxGeometry x="270" y="400" width="40" height="40" as="geometry" />
        </mxCell>
        <mxCell id="4g0ZVDvBsmE5eNXcazLT-16" value="" style="endArrow=classic;html=1;rounded=0;exitX=1;exitY=1;exitDx=0;exitDy=0;entryX=0;entryY=0.25;entryDx=0;entryDy=0;" edge="1" parent="1" source="4g0ZVDvBsmE5eNXcazLT-11" target="4g0ZVDvBsmE5eNXcazLT-12">
          <mxGeometry width="50" height="50" relative="1" as="geometry">
            <mxPoint x="320" y="430" as="sourcePoint" />
            <mxPoint x="360" y="403" as="targetPoint" />
          </mxGeometry>
        </mxCell>
        <mxCell id="4g0ZVDvBsmE5eNXcazLT-17" value="" style="endArrow=classic;html=1;rounded=0;exitX=1;exitY=0;exitDx=0;exitDy=0;entryX=0;entryY=0.5;entryDx=0;entryDy=0;" edge="1" parent="1" source="4g0ZVDvBsmE5eNXcazLT-11" target="4g0ZVDvBsmE5eNXcazLT-13">
          <mxGeometry width="50" height="50" relative="1" as="geometry">
            <mxPoint x="290" y="330" as="sourcePoint" />
            <mxPoint x="336" y="317" as="targetPoint" />
          </mxGeometry>
        </mxCell>
        <mxCell id="4g0ZVDvBsmE5eNXcazLT-18" value="vincolo \(a\) rispettato, la transizione adesso ha un solo posto entrante, dato che da quel posto ci sono 2 archi uscenti." style="text;html=1;align=center;verticalAlign=middle;whiteSpace=wrap;rounded=0;fontFamily=Times New Roman;fontSize=10;" vertex="1" parent="1">
          <mxGeometry x="270" y="450" width="90" height="90" as="geometry" />
        </mxCell>
        <mxCell id="4g0ZVDvBsmE5eNXcazLT-19" value="" style="ellipse;whiteSpace=wrap;html=1;aspect=fixed;fillColor=none;" vertex="1" parent="1">
          <mxGeometry x="450" y="330" width="40" height="40" as="geometry" />
        </mxCell>
        <mxCell id="4g0ZVDvBsmE5eNXcazLT-20" value="" style="rounded=0;whiteSpace=wrap;html=1;fillColor=#000000;" vertex="1" parent="1">
          <mxGeometry x="530" y="370" width="5" height="30" as="geometry" />
        </mxCell>
        <mxCell id="4g0ZVDvBsmE5eNXcazLT-21" value="" style="rounded=0;whiteSpace=wrap;html=1;fillColor=#000000;" vertex="1" parent="1">
          <mxGeometry x="530" y="300" width="5" height="30" as="geometry" />
        </mxCell>
        <mxCell id="4g0ZVDvBsmE5eNXcazLT-22" value="" style="ellipse;whiteSpace=wrap;html=1;aspect=fixed;fillColor=none;" vertex="1" parent="1">
          <mxGeometry x="450" y="400" width="40" height="40" as="geometry" />
        </mxCell>
        <mxCell id="4g0ZVDvBsmE5eNXcazLT-23" value="" style="endArrow=classic;html=1;rounded=0;exitX=1;exitY=1;exitDx=0;exitDy=0;entryX=0;entryY=0.25;entryDx=0;entryDy=0;" edge="1" parent="1" source="4g0ZVDvBsmE5eNXcazLT-19" target="4g0ZVDvBsmE5eNXcazLT-20">
          <mxGeometry width="50" height="50" relative="1" as="geometry">
            <mxPoint x="500" y="430" as="sourcePoint" />
            <mxPoint x="540" y="403" as="targetPoint" />
          </mxGeometry>
        </mxCell>
        <mxCell id="4g0ZVDvBsmE5eNXcazLT-25" value="vincolo \(b\) rispettato, il posto adesso ha un solo arco uscente, dato che tale arco va in una transizione con&amp;nbsp; 2 archi entranti&amp;nbsp;" style="text;html=1;align=center;verticalAlign=middle;whiteSpace=wrap;rounded=0;fontFamily=Times New Roman;fontSize=10;" vertex="1" parent="1">
          <mxGeometry x="450" y="450" width="90" height="90" as="geometry" />
        </mxCell>
        <mxCell id="4g0ZVDvBsmE5eNXcazLT-26" value="" style="endArrow=classic;html=1;rounded=0;exitX=1;exitY=0;exitDx=0;exitDy=0;entryX=0;entryY=0.75;entryDx=0;entryDy=0;" edge="1" parent="1" source="4g0ZVDvBsmE5eNXcazLT-22" target="4g0ZVDvBsmE5eNXcazLT-20">
          <mxGeometry width="50" height="50" relative="1" as="geometry">
            <mxPoint x="484" y="404" as="sourcePoint" />
            <mxPoint x="530" y="390" as="targetPoint" />
          </mxGeometry>
        </mxCell>
      </root>
    </mxGraphModel>
  </diagram>
</mxfile>
